<svg xmlns="http://www.w3.org/2000/svg" width="148" height="148" viewBox="0 0 148 148">
  <g id="Group_1" data-name="Group 1" transform="translate(-886 -466)">
    <rect id="Rectangle_1" data-name="Rectangle 1" width="148" height="148" rx="21" transform="translate(886 466)" fill="#db2f27"/>
    <path id="Path_1" data-name="Path 1" d="M64.7-148.495c-5.233-9.317-13.529-13.4-23.74-13.4-12.253,0-19.528,6-19.528,14.805,0,23.229,48.628,13.146,48.628,48.245,0,16.337-11.359,27.441-31.27,27.441-10.083,0-19.017-3.063-24.761-6.892V-94.762H14.8c6.764,14.678,14.167,21.953,26.93,21.953,14.678,0,21.059-8.168,21.059-19.017,0-29.866-47.734-19.4-47.734-49.9,0-13.912,10.721-21.57,30.249-21.57,9.7,0,15.061,1.787,19.911,2.808v12Z" transform="translate(917.881 657.195)" fill="#fff"/>
  </g>
</svg>
